#!OML:ASF F:\VICON\USERDATA\INSTALL\rory3\rory3.ASF
:FULLY-SPECIFIED
:DEGREES
345
root -0.0824148 17.9492 -1.01156 0.872832 -7.74466 1.44711
lowerback -2.14008 -1.21958 -4.54244
upperback 0.425009 -1.5282 1.54635
thorax 1.80038 -0.819837 4.08696
lowerneck -15.9338 0.5308 -9.19496
upperneck 30.346 2.50087 3.1759
head 12.5778 0.445503 3.17983
rclavicle 1.79093e-014 -1.03368e-014
rhumerus -28.7786 4.40341 -82.9863
rradius 84.6846
rwrist 14.4606
rhand -28.6326 16.5173
rfingers 7.12502
rthumb -1.99683 -13.4531
lclavicle 1.79093e-014 -1.03368e-014
lhumerus -9.93327 -29.7719 86.6863
lradius 110.383
lwrist 2.7801
lhand -20.6682 29.0154
lfingers 7.12502
lthumb 5.6947 58.9189
rfemur -6.80617 7.11852 15.1838
rtibia 25.4896
rfoot -16.7861 -3.72045
rtoes 3.77532
lfemur -0.0847768 -2.25437 -21.5378
ltibia 14.6255
lfoot -11.289 3.86069
ltoes -11.8081
346
root -0.083538 17.9491 -1.01277 0.867079 -7.60909 1.45632
lowerback -2.17122 -1.28633 -4.58317
upperback 0.471474 -1.61429 1.54938
thorax 1.87617 -0.866219 4.10825
lowerneck -16.0735 0.48405 -9.17007
upperneck 30.3076 2.45878 3.11891
head 12.5968 0.423116 3.14882
rclavicle -1.88473e-014 -4.77083e-015
rhumerus -28.9176 3.85063 -82.8441
rradius 82.8933
rwrist 14.6262
rhand -28.576 15.9726
rfingers 7.12502
rthumb -1.94221 -13.9983
lclavicle -1.88473e-014 -4.77083e-015
lhumerus -8.95595 -29.9265 86.0203
lradius 110.555
lwrist 2.95237
lhand -20.6862 29.3949
lfingers 7.12502
lthumb 5.67733 59.2989
rfemur -6.7813 7.08893 15.1924
rtibia 25.4985
rfoot -16.835 -3.78334
rtoes 3.97117
lfemur -0.0824794 -2.32146 -21.5322
ltibia 14.6164
lfoot -11.2474 3.77964
ltoes -11.84
347
root -0.083588 17.9494 -1.00935 0.8225 -7.32316 1.5059
lowerback -2.19358 -1.40159 -4.65488
upperback 0.513745 -1.76463 1.55242
thorax 1.95072 -0.945012 4.14421
lowerneck -16.088 0.433588 -9.19909
upperneck 30.1813 2.41325 3.05753
head 12.5536 0.39599 3.11979
rclavicle 4.11049e-014 1.19271e-015
rhumerus -29.0363 3.48327 -82.651
rradius 81.0383
rwrist 14.848
rhand -28.9531 15.4944
rfingers 7.12502
rthumb -2.3064 -14.4729
lclavicle 4.11049e-014 1.19271e-015
lhumerus -8.04976 -29.9973 85.3711
lradius 110.722
lwrist 3.19979
lhand -20.7848 29.7005
lfingers 7.12502
lthumb 5.58212 59.607
rfemur -6.65982 6.87454 15.156
rtibia 25.5086
rfoot -16.8983 -3.81125
rtoes 4.02131
lfemur -0.0318886 -2.5308 -21.5774
ltibia 14.6347
lfoot -11.2627 3.71575
ltoes -11.9574
348
root -0.0837084 17.9493 -1.00708 0.808938 -7.1287 1.55225
lowerback -2.18811 -1.48192 -4.7058
upperback 0.51577 -1.87069 1.5552
thorax 1.96295 -0.999015 4.17116
lowerneck -15.9927 0.372883 -9.37388
upperneck 30.014 2.35532 3.08509
head 12.4686 0.360386 3.14497
rclavicle 1.51449e-014 -3.18055e-015
rhumerus -29.2298 3.2752 -82.4168
rradius 79.2521
rwrist 14.9633
rhand -29.3603 15.4308
rfingers 7.12502
rthumb -2.69966 -14.5318
lclavicle 1.51449e-014 -3.18055e-015
lhumerus -7.58496 -29.8442 85.051
lradius 110.766
lwrist 3.27276
lhand -20.6817 29.4127
lfingers 7.12502
lthumb 5.68162 59.3166
rfemur -6.61005 6.69888 15.1149
rtibia 25.5196
rfoot -16.921 -3.8136
rtoes 4.29894
lfemur -0.0375107 -2.67602 -21.6212
ltibia 14.6574
lfoot -11.3136 3.66981
ltoes -11.8616
349
root -0.0831291 17.9485 -1.00774 0.830773 -7.08808 1.55764
lowerback -2.2005 -1.50827 -4.69746
upperback 0.514577 -1.9054 1.54811
thorax 1.9719 -1.01642 4.15719
lowerneck -15.9093 0.311563 -9.54878
upperneck 29.8338 2.26769 3.20621
head 12.3807 0.324635 3.20172
rclavicle -1.87603e-015 5.56597e-015
rhumerus -29.3743 2.64948 -82.2933
rradius 77.4486
rwrist 15.3543
rhand -29.3065 15.6594
rfingers 7.12502
rthumb -2.6477 -14.3039
lclavicle -1.87603e-015 5.56597e-015
lhumerus -7.15804 -29.8091 84.7412
lradius 110.803
lwrist 3.14424
lhand -20.5813 29.2565
lfingers 7.12502
lthumb 5.77859 59.1577
rfemur -6.64452 6.62446 15.1018
rtibia 25.5442
rfoot -16.9236 -3.76277
rtoes 4.47884
lfemur -0.0647087 -2.81797 -21.6357
ltibia 14.6615
lfoot -11.2941 3.75246
ltoes -11.6749
350
root -0.0827785 17.9484 -1.00813 0.845167 -7.06488 1.54599
lowerback -2.1301 -1.52344 -4.70693
upperback 0.474709 -1.92952 1.56987
thorax 1.89488 -1.02594 4.18643
lowerneck -15.8993 0.274755 -9.64303
upperneck 29.695 2.21365 3.28738
head 12.3242 0.306094 3.23672
rclavicle 4.40494e-014 7.95139e-016
rhumerus -29.5471 1.80783 -82.1749
rradius 75.6017
rwrist 15.8392
rhand -29.3203 15.7453
rfingers 7.12502
rthumb -2.66106 -14.2178
lclavicle 4.40494e-014 7.95139e-016
lhumerus -6.66304 -29.9131 84.336
lradius 110.942
lwrist 2.91023
lhand -20.5883 29.4866
lfingers 7.12502
lthumb 5.77186 59.388
rfemur -6.67321 6.6106 15.1159
rtibia 25.5828
rfoot -16.9438 -3.74568
rtoes 4.46364
lfemur -0.0706203 -2.89031 -21.6268
ltibia 14.6436
lfoot -11.228 3.7638
ltoes -11.6583
351
root -0.0835253 17.9473 -1.00638 0.836404 -7.10349 1.56414
lowerback -1.84345 -1.5337 -4.78947
upperback 0.273464 -1.95787 1.62848
thorax 1.53427 -1.02766 4.30332
lowerneck -15.7774 0.262567 -9.77818
upperneck 29.6728 2.19994 3.35359
head 12.2887 0.294203 3.28029
rclavicle -6.59095e-015 -7.95139e-015
rhumerus -29.9922 1.34097 -81.9813
rradius 73.8459
rwrist 15.9661
rhand -29.5002 15.6037
rfingers 7.12502
rthumb -2.83479 -14.3572
lclavicle -6.59095e-015 -7.95139e-015
lhumerus -6.49583 -29.895 84.1491
lradius 111.157
lwrist 2.80878
lhand -20.551 29.76
lfingers 7.12502
lthumb 5.80787 59.6604
rfemur -6.68041 6.6135 15.094
rtibia 25.6085
rfoot -16.957 -3.70545
rtoes 4.40317
lfemur -0.0498723 -2.83917 -21.6479
ltibia 14.6271
lfoot -11.1946 3.75409
ltoes -11.9485
352
root -0.0840467 17.9456 -1.00514 0.823335 -7.13267 1.58769
lowerback -1.86925 -1.53989 -4.85992
upperback 0.309468 -1.96333 1.65984
thorax 1.59012 -1.0335 4.37428
lowerneck -15.7699 0.203311 -9.89778
upperneck 29.4997 2.13173 3.39969
head 12.2216 0.26314 3.30307
rclavicle -8.29305e-015 1.19271e-015
rhumerus -30.058 0.897736 -81.7724
rradius 72.0971
rwrist 15.8163
rhand -29.4609 15.3561
rfingers 7.12502
rthumb -2.79683 -14.6053
lclavicle -8.29305e-015 1.19271e-015
lhumerus -5.80283 -29.8714 83.6889
lradius 111.28
lwrist 2.75059
lhand -20.6339 29.7575
lfingers 7.12502
lthumb 5.72778 59.6601
rfemur -6.68193 6.57617 15.0663
rtibia 25.6126
rfoot -16.9373 -3.6912
rtoes 4.04587
lfemur -0.0630509 -2.81043 -21.6763
ltibia 14.621
lfoot -11.1814 3.77386
ltoes -12.0554
353
root -0.084616 17.9461 -1.00323 0.82073 -7.1648 1.50428
lowerback -1.89119 -1.53988 -4.82519
upperback 0.348148 -1.96391 1.7376
thorax 1.64404 -1.03628 4.43429
lowerneck -15.7151 0.177052 -10.0361
upperneck 29.2432 2.12195 3.4081
head 12.1079 0.254701 3.31953
rclavicle -1.0343e-014 -8.34896e-015
rhumerus -30.1453 0.463096 -81.5391
rradius 70.4123
rwrist 15.4898
rhand -29.3921 15.0275
rfingers 7.12502
rthumb -2.73038 -14.9348
lclavicle -1.0343e-014 -8.34896e-015
lhumerus -5.27007 -29.8516 83.3248
lradius 111.382
lwrist 2.59222
lhand -20.7417 29.5991
lfingers 7.12502
lthumb 5.62377 59.5045
rfemur -6.68133 6.62472 15.165
rtibia 25.6417
rfoot -16.9603 -3.70553
rtoes 3.95094
lfemur -0.0301934 -2.82639 -21.5899
ltibia 14.5718
lfoot -11.186 3.80874
ltoes -11.898
354
root -0.0849523 17.9475 -1.00235 0.785163 -7.19262 1.44946
lowerback -1.78385 -1.54532 -4.82177
upperback 0.322983 -1.97773 1.81382
thorax 1.56201 -1.04092 4.51433
lowerneck -15.6648 0.180575 -10.1373
upperneck 29.0792 2.1515 3.39763
head 12.0299 0.261949 3.33094
rclavicle 9.07576e-015 -2.78299e-014
rhumerus -30.387 0.041493 -81.3099
rradius 68.8521
rwrist 14.9984
rhand -29.465 14.158
rfingers 7.12502
rthumb -2.80077 -15.8034
lclavicle 9.07576e-015 -2.78299e-014
lhumerus -5.01949 -29.7737 83.0864
lradius 111.545
lwrist 2.49513
lhand -20.8249 29.4627
lfingers 7.12502
lthumb 5.54339 59.3702
rfemur -6.67388 6.65044 15.2366
rtibia 25.7371
rfoot -17.0208 -3.70096
rtoes 4.09407
lfemur 0.139177 -2.91366 -21.5388
ltibia 14.4124
lfoot -11.1279 3.89911
ltoes -11.9609
